<svg id="visual" viewBox="0 0 900 600" width="900" height="600" xmlns="http://www.w3.org/2000/svg" xmlns:xlink="http://www.w3.org/1999/xlink" version="1.1"><rect x="0" y="0" width="900" height="600" fill="#140021"></rect><path d="M0 360L129 360L129 357L257 357L257 292L386 292L386 248L514 248L514 307L643 307L643 335L771 335L771 267L900 267L900 379L900 601L900 601L771 601L771 601L643 601L643 601L514 601L514 601L386 601L386 601L257 601L257 601L129 601L129 601L0 601Z" fill="#9900ff"></path><path d="M0 430L129 430L129 359L257 359L257 434L386 434L386 366L514 366L514 443L643 443L643 460L771 460L771 377L900 377L900 414L900 601L900 601L771 601L771 601L643 601L643 601L514 601L514 601L386 601L386 601L257 601L257 601L129 601L129 601L0 601Z" fill="#7700c6"></path><path d="M0 478L129 478L129 504L257 504L257 480L386 480L386 461L514 461L514 504L643 504L643 525L771 525L771 468L900 468L900 469L900 601L900 601L771 601L771 601L643 601L643 601L514 601L514 601L386 601L386 601L257 601L257 601L129 601L129 601L0 601Z" fill="#560090"></path></svg>